<?xml version="1.0" encoding="UTF-8"?>
<svg version="1.1" xmlns="http://www.w3.org/2000/svg" width="850" height="57">
<path d="M0 0 C1.17076705 -0.00776678 2.3415341 -0.01553356 3.54777893 -0.0235357 C5.47478342 -0.01342922 5.47478342 -0.01342922 7.44071728 -0.00311857 C8.82612943 -0.00655126 10.21153885 -0.0112975 11.59694251 -0.01723954 C15.42038473 -0.02979483 19.24360497 -0.02357884 23.0670484 -0.01440586 C27.2204415 -0.00771753 31.37379544 -0.01835135 35.52718031 -0.02680171 C42.81198246 -0.03919938 50.09672024 -0.04036772 57.38152939 -0.03425127 C68.21413809 -0.02518023 79.046687 -0.03317608 89.8792911 -0.04454251 C109.22387593 -0.06423825 128.56843401 -0.06655129 147.91302648 -0.06134731 C164.84213745 -0.05679522 181.77123781 -0.05738296 198.70034844 -0.06318766 C200.96866441 -0.06394451 203.23698039 -0.06470049 205.50529637 -0.0654556 C208.92318071 -0.06660076 212.34106506 -0.06775064 215.7589494 -0.06891485 C247.54750328 -0.07962447 279.33605361 -0.08434033 311.12460858 -0.07644469 C312.92316171 -0.07599893 312.92316171 -0.07599893 314.75804924 -0.07554416 C324.49590183 -0.07309507 334.23375438 -0.07048356 343.97160692 -0.06786003 C381.96270585 -0.05775606 419.9537606 -0.06611398 457.94485337 -0.08935457 C500.60133997 -0.11540678 543.25779997 -0.1282806 585.91429484 -0.12116683 C590.45958703 -0.12045073 595.00487923 -0.11977635 599.55017143 -0.11912638 C601.22899371 -0.11887167 601.22899371 -0.11887167 602.94173158 -0.11861181 C619.86180321 -0.11630553 636.78185018 -0.12430142 653.70191628 -0.13741785 C672.93671605 -0.15230183 692.17145793 -0.15320892 711.40625643 -0.13534694 C722.17850365 -0.12575625 732.95061599 -0.12727507 743.72285432 -0.14458163 C750.91081861 -0.15502728 758.09867957 -0.15103289 765.2866336 -0.13510159 C769.38713337 -0.12642296 773.48736776 -0.12415845 777.58785444 -0.13937091 C781.31561789 -0.15307068 785.04288685 -0.14848212 788.77062093 -0.12908572 C790.74829552 -0.12356698 792.72599484 -0.1377339 794.70362112 -0.15261707 C805.3892061 -0.06374727 805.3892061 -0.06374727 810.19216782 4.37719816 C813.07733124 7.83939426 813.73134647 10.865167 813.54373032 15.38501066 C812.77869233 19.72022593 810.39551024 22.50990353 806.91062608 25.02159202 C803.80500364 26.57026426 801.83928171 26.75293362 798.38433564 26.75439632 C797.21356859 26.7621631 796.04280154 26.76992988 794.8365567 26.77793202 C792.90955222 26.76782554 792.90955222 26.76782554 790.94361836 26.75751489 C789.5582062 26.76094758 788.17279679 26.76569382 786.78739312 26.77163586 C782.9639509 26.78419115 779.14073067 26.77797516 775.31728724 26.76880218 C771.16389414 26.76211385 767.0105402 26.77274767 762.85715532 26.78119802 C755.57235317 26.7935957 748.2876154 26.79476404 741.00280625 26.78864759 C730.17019754 26.77957655 719.33764864 26.7875724 708.50504454 26.79893883 C689.1604597 26.81863457 669.81590162 26.82094761 650.47130916 26.81574363 C633.54219819 26.81119154 616.61309783 26.81177928 599.6839872 26.81758398 C597.41567122 26.81834083 595.14735525 26.81909681 592.87903927 26.81985192 C589.46115492 26.82099708 586.04327058 26.82214696 582.62538624 26.82331117 C550.83683236 26.83402079 519.04828202 26.83873665 487.25972706 26.830841 C486.06069164 26.83054383 484.86165622 26.83024666 483.62628639 26.82994048 C473.88843381 26.82749139 464.15058126 26.82487988 454.41272871 26.82225635 C416.42162978 26.81215238 378.43057504 26.8205103 340.43948227 26.84375089 C297.78299566 26.8698031 255.12653566 26.88267692 212.4700408 26.87556314 C207.9247486 26.87484705 203.37945641 26.87417267 198.8341642 26.8735227 C197.71494935 26.87335289 196.5957345 26.87318308 195.44260405 26.87300813 C178.52253243 26.87070185 161.60248545 26.87869774 144.68241936 26.89181417 C125.44761958 26.90669815 106.21287771 26.90760524 86.97807921 26.88974326 C76.20583198 26.88015257 65.43371965 26.88167139 54.66148132 26.89897795 C47.47351703 26.9094236 40.28565607 26.90542921 33.09770204 26.88949791 C28.99720227 26.88081928 24.89696788 26.87855477 20.7964812 26.89376723 C17.06871775 26.907467 13.34144878 26.90287843 9.61371471 26.88348204 C7.63604012 26.8779633 5.6583408 26.89213022 3.68071452 26.90701339 C-7.00487046 26.81814359 -7.00487046 26.81814359 -11.80783218 22.37719816 C-14.6929956 18.91500206 -15.34701083 15.88922932 -15.15939468 11.36938566 C-14.39435669 7.03417039 -12.0111746 4.24449279 -8.52629044 1.73280429 C-5.420668 0.18413206 -3.45494607 0.00146269 0 0 Z " fill="#FEFEFE" transform="translate(26.807832181453705,14.622801840305328)"/>
<path d="M0 0 C1.17076705 -0.00776678 2.3415341 -0.01553356 3.54777893 -0.0235357 C5.47478342 -0.01342922 5.47478342 -0.01342922 7.44071728 -0.00311857 C8.82612943 -0.00655126 10.21153885 -0.0112975 11.59694251 -0.01723954 C15.42038473 -0.02979483 19.24360497 -0.02357884 23.0670484 -0.01440586 C27.2204415 -0.00771753 31.37379544 -0.01835135 35.52718031 -0.02680171 C42.81198246 -0.03919938 50.09672024 -0.04036772 57.38152939 -0.03425127 C68.21413809 -0.02518023 79.046687 -0.03317608 89.8792911 -0.04454251 C109.22387593 -0.06423825 128.56843401 -0.06655129 147.91302648 -0.06134731 C164.84213745 -0.05679522 181.77123781 -0.05738296 198.70034844 -0.06318766 C200.96866441 -0.06394451 203.23698039 -0.06470049 205.50529637 -0.0654556 C208.92318071 -0.06660076 212.34106506 -0.06775064 215.7589494 -0.06891485 C247.54750328 -0.07962447 279.33605361 -0.08434033 311.12460858 -0.07644469 C312.92316171 -0.07599893 312.92316171 -0.07599893 314.75804924 -0.07554416 C324.49590183 -0.07309507 334.23375438 -0.07048356 343.97160692 -0.06786003 C381.96270585 -0.05775606 419.9537606 -0.06611398 457.94485337 -0.08935457 C500.60133997 -0.11540678 543.25779997 -0.1282806 585.91429484 -0.12116683 C590.45958703 -0.12045073 595.00487923 -0.11977635 599.55017143 -0.11912638 C601.22899371 -0.11887167 601.22899371 -0.11887167 602.94173158 -0.11861181 C619.86180321 -0.11630553 636.78185018 -0.12430142 653.70191628 -0.13741785 C672.93671605 -0.15230183 692.17145793 -0.15320892 711.40625643 -0.13534694 C722.17850365 -0.12575625 732.95061599 -0.12727507 743.72285432 -0.14458163 C750.91081861 -0.15502728 758.09867957 -0.15103289 765.2866336 -0.13510159 C769.38713337 -0.12642296 773.48736776 -0.12415845 777.58785444 -0.13937091 C781.31561789 -0.15307068 785.04288685 -0.14848212 788.77062093 -0.12908572 C790.74829552 -0.12356698 792.72599484 -0.1377339 794.70362112 -0.15261707 C805.3892061 -0.06374727 805.3892061 -0.06374727 810.19216782 4.37719816 C813.07733124 7.83939426 813.73134647 10.865167 813.54373032 15.38501066 C812.77869233 19.72022593 810.39551024 22.50990353 806.91062608 25.02159202 C803.80500364 26.57026426 801.83928171 26.75293362 798.38433564 26.75439632 C797.21356859 26.7621631 796.04280154 26.76992988 794.8365567 26.77793202 C792.90955222 26.76782554 792.90955222 26.76782554 790.94361836 26.75751489 C789.5582062 26.76094758 788.17279679 26.76569382 786.78739312 26.77163586 C782.9639509 26.78419115 779.14073067 26.77797516 775.31728724 26.76880218 C771.16389414 26.76211385 767.0105402 26.77274767 762.85715532 26.78119802 C755.57235317 26.7935957 748.2876154 26.79476404 741.00280625 26.78864759 C730.17019754 26.77957655 719.33764864 26.7875724 708.50504454 26.79893883 C689.1604597 26.81863457 669.81590162 26.82094761 650.47130916 26.81574363 C633.54219819 26.81119154 616.61309783 26.81177928 599.6839872 26.81758398 C597.41567122 26.81834083 595.14735525 26.81909681 592.87903927 26.81985192 C589.46115492 26.82099708 586.04327058 26.82214696 582.62538624 26.82331117 C550.83683236 26.83402079 519.04828202 26.83873665 487.25972706 26.830841 C486.06069164 26.83054383 484.86165622 26.83024666 483.62628639 26.82994048 C473.88843381 26.82749139 464.15058126 26.82487988 454.41272871 26.82225635 C416.42162978 26.81215238 378.43057504 26.8205103 340.43948227 26.84375089 C297.78299566 26.8698031 255.12653566 26.88267692 212.4700408 26.87556314 C207.9247486 26.87484705 203.37945641 26.87417267 198.8341642 26.8735227 C197.71494935 26.87335289 196.5957345 26.87318308 195.44260405 26.87300813 C178.52253243 26.87070185 161.60248545 26.87869774 144.68241936 26.89181417 C125.44761958 26.90669815 106.21287771 26.90760524 86.97807921 26.88974326 C76.20583198 26.88015257 65.43371965 26.88167139 54.66148132 26.89897795 C47.47351703 26.9094236 40.28565607 26.90542921 33.09770204 26.88949791 C28.99720227 26.88081928 24.89696788 26.87855477 20.7964812 26.89376723 C17.06871775 26.907467 13.34144878 26.90287843 9.61371471 26.88348204 C7.63604012 26.8779633 5.6583408 26.89213022 3.68071452 26.90701339 C-7.00487046 26.81814359 -7.00487046 26.81814359 -11.80783218 22.37719816 C-14.6929956 18.91500206 -15.34701083 15.88922932 -15.15939468 11.36938566 C-14.39435669 7.03417039 -12.0111746 4.24449279 -8.52629044 1.73280429 C-5.420668 0.18413206 -3.45494607 0.00146269 0 0 Z M10.19216782 2.37719816 C10.19216782 9.63719816 10.19216782 16.89719816 10.19216782 24.37719816 C85.80497774 24.46276168 161.41779305 24.54236842 237.03063828 24.58891386 C238.14914154 24.58960414 239.26764481 24.59029443 240.42004211 24.59100563 C264.72619363 24.60596902 289.03234565 24.61982009 313.33849845 24.63252481 C325.25765789 24.63876167 337.17681718 24.64524441 349.09597641 24.65185636 C350.28209696 24.65251016 351.4682175 24.65316395 352.69028109 24.65383756 C391.15879872 24.6751569 429.62727971 24.71272282 468.09577513 24.75868426 C507.61622817 24.80581698 547.13666092 24.83661835 586.65714159 24.84677311 C592.23489142 24.84821395 597.81264119 24.84984214 603.39039093 24.85158437 C604.48820788 24.85192149 605.58602482 24.8522586 606.71710894 24.85260594 C624.41253752 24.85852214 642.1079035 24.88173292 659.80330651 24.91135833 C677.5788752 24.94075079 695.35438162 24.95204906 713.12997378 24.94470505 C723.70005446 24.94089259 734.26990779 24.9511257 744.83994756 24.98118588 C751.89331149 24.99988042 758.94652587 25.00055543 765.99989996 24.98635723 C770.02367143 24.97877994 774.04701179 24.97924681 778.07073773 25.00161407 C781.72896711 25.02179583 785.38642761 25.01909986 789.04464469 24.99789804 C790.98514875 24.9926236 792.92567159 25.01198174 794.86607707 25.03224054 C801.89504754 25.08888713 801.89504754 25.08888713 807.95082277 21.96374571 C811.03319942 18.40663443 811.58618278 16.23700218 811.55154282 11.48266691 C810.91634968 7.76126363 808.85237766 5.97406967 806.19216782 3.37719816 C803.6046796 2.08345405 801.7516372 2.25254313 798.85261959 2.25299966 C797.13867782 2.24962872 797.13867782 2.24962872 795.39011097 2.24618968 C794.12151472 2.2488167 792.85291846 2.25144371 791.5458799 2.25415033 C790.1894388 2.25341134 788.83299788 2.25223345 787.47655749 2.25065383 C783.71966372 2.24756815 779.96279676 2.25077366 776.20590497 2.25493197 C772.12990102 2.25835195 768.05389992 2.2559981 763.97789544 2.25435448 C756.82448712 2.25227563 749.6710871 2.2539332 742.51767975 2.25799268 C731.88072066 2.26401234 721.24376682 2.26432992 710.60680634 2.2634507 C692.71625096 2.26213482 674.82569927 2.26548569 656.93514496 2.2714681 C639.21339642 2.27737892 621.49164942 2.28123279 603.7698999 2.28232092 C602.11896711 2.28242403 602.11896711 2.28242403 600.43468214 2.28252922 C594.84550439 2.28286754 589.25632665 2.28316893 583.6671489 2.28345609 C544.04739505 2.28555822 504.4276432 2.29230036 464.80789047 2.30175871 C426.31049475 2.31093853 387.81309957 2.3180244 349.31570297 2.32226652 C348.12968563 2.32239805 346.94366829 2.32252957 345.72171103 2.32266508 C333.81157073 2.32398357 321.90143043 2.32525939 309.99129013 2.32650394 C285.72753034 2.32904037 261.46377058 2.33186162 237.20001084 2.33485502 C236.08432721 2.33499231 234.96864359 2.3351296 233.81915137 2.33527105 C159.27682268 2.34447648 84.73449512 2.36034299 10.19216782 2.37719816 Z " fill="#000000" transform="translate(26.807832181453705,14.622801840305328)"/>
<path d="M0 0 C3.898125 0.0309375 3.898125 0.0309375 7.875 0.0625 C7.875 7.3225 7.875 14.5825 7.875 22.0625 C5.35875 22.165625 2.8425 22.26875 0.25 22.375 C-0.92103271 22.44328003 -0.92103271 22.44328003 -2.11572266 22.51293945 C-6.08186214 22.59097342 -8.4582651 22.2132921 -11.5859375 19.66796875 C-15.01417335 16.15007134 -15.52040724 14.11339332 -15.484375 9.16796875 C-14.84918186 5.44656547 -12.78520984 3.65937151 -10.125 1.0625 C-6.93953711 -0.53023144 -3.49300652 -0.03891833 0 0 Z " fill="#6A9A42" transform="translate(29.125,16.9375)"/>
<path d="M0 0 C0 0.66 0 1.32 0 2 C-0.928125 2.4125 -1.85625 2.825 -2.8125 3.25 C-6.71828905 5.38224137 -6.71828905 5.38224137 -9 9 C-9.53198011 13.787821 -9.72509014 15.86402545 -7.125 19.9375 C-3.65477762 23.30565702 -1.12520902 23.23650526 3.625 23.5625 C4.81351563 23.64628906 6.00203125 23.73007812 7.2265625 23.81640625 C8.59941406 23.90728516 8.59941406 23.90728516 10 24 C10 24.33 10 24.66 10 25 C-1.67559055 26.59370079 -1.67559055 26.59370079 -6.625 24.375 C-10.39901561 20.60098439 -11.83819944 18.45620508 -12.4375 13.0625 C-12.25994127 8.7849487 -10.81013746 6.26583542 -8 3 C-5.01106771 0.81297638 -3.72055546 0 0 0 Z " fill="#1C1F18" transform="translate(24,15)"/>
<path d="M0 0 C0.33 0 0.66 0 1 0 C1.41776675 6.05761794 1.12264203 9.19025097 -3 14 C-5.25 15.375 -5.25 15.375 -7 16 C-7.33 15.34 -7.66 14.68 -8 14 C-6.8553125 13.319375 -6.8553125 13.319375 -5.6875 12.625 C-1.93576128 8.96051102 -1.17523203 5.00667954 0 0 Z " fill="#1C1C1C" transform="translate(839,24)"/>
<path d="M0 0 C0 0.66 0 1.32 0 2 C-3.29549466 3.72264494 -6.33118845 5.29445932 -10 6 C-4.15384615 0 -4.15384615 0 0 0 Z " fill="#252822" transform="translate(24,15)"/>
</svg>
