<svg xmlns="http://www.w3.org/2000/svg" version="1.0" preserveAspectRatio="xMidYMid meet" viewBox="196.03 375.35 1215.06 1295.69">
<metadata>
Created by potrace 1.16, written by Peter Selinger 2001-2019
</metadata>
<g transform="translate(0.000000,2360.000000) scale(0.100000,-0.100000)" fill="#000000" stroke="none">
<path d="M9103 19823 c-30 -32 -183 -332 -228 -447 -20 -51 -85 -337 -85 -374 0 -2 -8 -1 -17 2 -57 22 -160 24 -257 5 -112 -22 -151 -41 -287 -139 l-97 -69 -38 19 c-21 11 -47 20 -57 20 -14 0 -17 4 -12 18 4 9 10 42 12 73 6 68 -11 107 -60 134 -33 17 -35 21 -34 68 1 43 -3 53 -28 73 -15 12 -43 25 -61 29 -28 5 -35 12 -43 43 -12 48 -28 135 -36 197 -10 77 -13 82 -62 99 -68 23 -267 16 -346 -12 -277 -100 -524 -342 -635 -622 -41 -104 -40 -113 13 -151 99 -72 225 -181 308 -269 72 -75 89 -100 102 -145 9 -30 28 -67 43 -83 42 -45 33 -83 -26 -111 -26 -12 -103 -53 -172 -91 -69 -38 -208 -108 -310 -155 -265 -122 -253 -115 -263 -155 -11 -41 6 -124 35 -171 20 -32 91 -69 263 -136 89 -35 91 -35 258 -37 l167 -1 6 -33 c4 -18 24 -55 44 -81 39 -49 182 -164 220 -176 31 -10 25 -17 -36 -49 -67 -35 -188 -146 -235 -215 -19 -28 -39 -51 -45 -51 -17 0 -116 35 -159 58 -42 21 -138 116 -170 167 -30 49 -57 75 -77 75 -21 0 -90 -68 -126 -125 -20 -31 -27 -57 -30 -116 -5 -94 13 -154 73 -245 l43 -64 -47 0 -48 0 -38 96 c-64 163 -122 383 -140 529 -12 108 -18 149 -36 255 -11 63 -27 135 -35 160 -8 25 -25 79 -39 120 -46 142 -63 188 -96 256 -47 98 -129 232 -220 359 -44 61 -110 153 -147 206 -98 140 -125 169 -257 287 -204 183 -351 292 -392 292 -57 0 -57 -62 0 -126 146 -167 225 -280 283 -402 20 -42 46 -97 57 -122 12 -25 21 -49 19 -53 -1 -4 2 -17 8 -27 10 -19 46 -148 55 -200 11 -58 24 -149 30 -205 4 -33 9 -73 12 -90 7 -47 7 -401 1 -715 -9 -451 21 -719 112 -1001 41 -125 135 -343 164 -382 14 -19 26 -39 26 -45 0 -6 9 -18 21 -26 30 -21 17 -33 -43 -40 -76 -10 -121 -37 -260 -156 -68 -58 -154 -131 -193 -162 -38 -31 -99 -81 -135 -113 -93 -81 -481 -372 -597 -447 -131 -84 -131 -84 -186 -113 l-48 -26 -28 63 c-15 35 -51 124 -79 198 -28 74 -84 218 -123 320 -118 306 -202 595 -279 964 -37 176 -41 204 -30 239 6 21 9 41 6 44 -7 7 38 121 80 205 61 122 327 559 423 694 100 143 108 169 64 204 -40 31 -89 23 -214 -35 -285 -132 -452 -246 -645 -439 -90 -91 -154 -191 -154 -241 0 -18 -60 -106 -133 -195 -25 -30 -185 -266 -234 -345 -89 -142 -263 -470 -355 -668 -49 -105 -104 -224 -123 -262 -94 -198 -208 -499 -305 -810 -38 -121 -76 -240 -85 -265 -24 -68 -90 -318 -129 -490 -85 -378 -137 -728 -156 -1055 -6 -104 -15 -224 -20 -265 -13 -97 -13 -491 0 -578 5 -37 14 -128 20 -202 26 -331 87 -641 189 -960 72 -226 242 -690 296 -805 18 -38 54 -119 80 -180 62 -143 151 -322 180 -360 12 -16 30 -46 40 -65 36 -70 200 -318 286 -431 112 -147 381 -460 446 -519 181 -164 326 -265 541 -373 110 -56 168 -70 178 -44 2 7 -15 56 -40 108 -24 53 -70 165 -101 250 -31 84 -88 214 -127 288 -88 169 -147 320 -199 514 -22 83 -53 195 -69 247 -69 225 -132 565 -186 1005 -19 154 -39 295 -45 313 -9 27 -8 37 5 51 18 20 21 57 6 66 -20 12 -10 82 20 141 57 115 161 208 345 311 154 87 254 104 305 53 28 -28 82 -26 115 3 25 21 26 25 16 64 -6 23 -16 45 -21 48 -16 10 15 59 62 99 48 42 80 53 199 68 113 14 195 -4 341 -74 127 -61 149 -59 169 14 6 24 20 55 30 69 28 40 204 119 262 119 12 0 57 -11 100 -25 112 -36 130 -34 164 18 50 75 162 106 265 72 67 -21 110 -54 156 -117 68 -95 131 -96 185 -3 43 75 84 112 165 153 73 35 74 36 139 25 36 -7 68 -14 71 -18 4 -3 -50 -59 -118 -124 -208 -196 -479 -504 -671 -761 -546 -730 -897 -1404 -1011 -1937 -29 -138 -33 -388 -7 -468 29 -89 60 -143 106 -186 l45 -41 -32 -137 c-19 -81 -35 -176 -38 -234 -4 -88 -2 -106 23 -183 15 -47 44 -111 65 -142 37 -57 200 -236 297 -326 34 -31 57 -62 67 -93 45 -131 157 -289 245 -345 81 -51 170 -31 192 42 12 39 4 102 -27 217 -6 21 -3 23 35 23 23 0 57 6 76 14 l35 15 44 -57 c60 -78 174 -185 214 -201 42 -18 92 -4 109 29 14 27 15 103 4 191 l-7 56 38 10 37 10 22 -56 c38 -96 66 -145 103 -183 31 -32 44 -38 77 -38 61 0 91 35 119 143 l23 87 42 -39 c51 -47 75 -56 119 -41 27 9 38 21 61 73 23 51 29 80 33 164 4 94 2 106 -22 160 -43 93 -88 129 -199 157 -59 15 -48 -8 -95 198 l-20 87 28 98 c15 54 46 163 68 243 23 80 45 161 50 180 7 24 9 -33 9 -180 -3 -407 52 -569 244 -723 104 -84 295 -204 366 -230 47 -18 57 -26 88 -81 51 -89 206 -287 246 -314 39 -27 92 -25 113 4 19 25 61 307 60 400 0 67 -5 90 -28 137 -50 102 -162 190 -259 203 -94 13 -200 -49 -228 -135 l-14 -41 -92 60 c-259 166 -313 245 -343 503 -25 211 17 922 76 1280 52 320 230 920 355 1201 27 60 49 120 49 132 0 34 -36 41 -66 13 -59 -55 -184 -348 -279 -650 -24 -77 -51 -146 -59 -152 -9 -7 -25 -48 -36 -92 -10 -44 -46 -165 -80 -270 -91 -283 -162 -561 -295 -1150 -26 -115 -49 -211 -50 -213 -2 -2 -19 49 -39 112 -41 131 -138 330 -221 456 l-57 85 6 135 c3 74 7 212 8 306 2 181 -2 204 -43 204 -40 0 -53 -52 -74 -310 -4 -41 -13 -120 -21 -175 -7 -55 -14 -169 -14 -252 0 -140 2 -155 20 -173 27 -27 54 -25 79 6 23 30 19 35 78 -106 61 -146 263 -785 263 -832 0 -3 -9 -4 -20 -1 -77 20 -220 -77 -220 -150 0 -20 8 -52 17 -72 15 -31 15 -37 3 -45 -25 -16 -48 -11 -56 13 -43 142 -160 221 -280 188 -81 -22 -142 -126 -123 -210 4 -20 6 -37 5 -39 -8 -8 -77 -14 -99 -8 -19 4 -26 15 -32 42 -7 40 -67 108 -110 124 -47 18 -118 12 -170 -14 -39 -20 -51 -23 -65 -13 -27 19 -262 274 -280 305 -37 61 -60 142 -60 214 0 85 98 510 225 978 35 126 43 221 22 239 -22 18 -53 5 -65 -27 -27 -75 -135 -422 -165 -532 l-33 -125 -18 27 c-47 72 -60 263 -30 439 80 466 435 1173 909 1809 234 313 459 574 735 850 177 177 480 450 501 450 4 0 50 -27 101 -61 116 -75 297 -166 405 -205 l83 -29 0 -70 c0 -91 22 -189 55 -255 26 -52 140 -177 180 -198 20 -10 20 -11 -3 -49 -86 -143 -106 -323 -53 -464 37 -98 121 -176 207 -192 140 -27 464 160 622 359 l48 61 37 -43 c77 -88 172 -93 240 -13 l35 40 83 -18 c109 -23 342 -23 484 2 191 32 298 83 336 158 50 97 19 181 -123 328 -60 62 -105 100 -128 107 l-35 12 57 117 c35 73 61 143 68 183 11 60 11 206 0 239 -3 8 12 26 37 44 35 25 45 28 58 17 29 -24 134 -255 213 -470 181 -491 201 -550 226 -655 35 -152 146 -698 142 -702 -2 -2 -30 13 -62 32 -101 61 -201 88 -329 88 -113 0 -167 -10 -243 -45 -23 -11 -45 -18 -47 -16 -3 3 2 52 10 109 21 140 30 396 16 432 -11 29 -50 38 -68 15 -6 -7 -15 -76 -22 -153 -7 -77 -28 -223 -48 -325 -35 -183 -36 -186 -88 -265 -69 -106 -111 -214 -115 -298 0 -5 -15 1 -34 12 -63 40 -78 32 -157 -82 -86 -123 -129 -209 -129 -258 0 -32 -4 -37 -28 -42 -42 -9 -118 -81 -148 -143 -23 -46 -26 -63 -20 -107 8 -70 38 -158 76 -218 16 -27 30 -55 30 -62 0 -30 -392 -397 -423 -397 -5 0 -7 48 -3 108 3 59 8 184 11 277 4 94 13 224 21 290 37 293 45 372 56 572 9 172 9 215 -2 227 -17 21 -47 20 -59 -2 -5 -9 -21 -121 -36 -247 -14 -127 -37 -311 -51 -410 -13 -99 -29 -279 -34 -400 -6 -121 -15 -292 -20 -380 -6 -88 -10 -203 -10 -254 l0 -94 -61 67 c-97 106 -193 161 -239 136 -41 -22 -25 -55 73 -153 74 -73 101 -108 130 -167 41 -85 103 -282 113 -360 l7 -52 -41 21 c-104 53 -193 -6 -209 -138 l-6 -52 -19 33 c-50 82 -118 128 -193 128 -136 0 -221 -148 -185 -320 7 -33 16 -60 19 -60 4 0 15 -19 26 -42 10 -23 55 -80 100 -127 46 -48 97 -102 114 -122 36 -43 81 -64 116 -55 45 11 55 42 63 197 l7 144 21 -35 c28 -47 230 -276 250 -284 32 -12 66 -5 89 19 21 20 25 34 25 84 0 60 0 61 24 50 38 -18 93 -3 110 29 23 44 45 248 35 315 -20 123 -95 236 -167 252 -28 6 -31 11 -41 69 -6 35 -20 89 -31 121 -16 48 -20 84 -20 205 0 81 3 175 6 209 6 54 10 62 31 67 13 4 58 31 100 61 41 30 76 53 77 51 2 -2 12 -39 24 -83 137 -507 180 -650 223 -737 11 -21 19 -47 19 -58 0 -66 157 -265 243 -308 38 -19 54 -39 121 -147 42 -69 88 -132 101 -141 37 -24 94 -15 119 19 17 22 22 46 25 113 l3 84 63 0 c35 0 69 2 77 5 7 3 30 -16 53 -44 54 -64 132 -121 168 -121 71 0 97 47 97 177 l0 88 43 25 c23 14 45 26 48 28 4 2 28 -27 53 -63 79 -110 150 -142 202 -90 24 24 25 31 22 110 l-3 84 40 -38 c66 -64 109 -76 154 -45 21 15 23 22 18 68 -6 55 -98 304 -138 376 -19 35 -34 47 -76 63 -30 11 -53 26 -53 34 0 19 -112 354 -140 418 -25 57 -27 54 71 106 114 61 236 182 287 284 29 59 70 177 99 285 21 80 26 124 30 283 4 150 8 190 20 194 20 8 38 47 63 140 21 78 21 85 7 145 -9 35 -18 78 -21 96 -11 79 -150 223 -252 262 -18 7 -24 17 -24 40 0 32 -97 521 -155 780 -31 138 -146 496 -237 738 -17 45 -28 85 -25 88 25 26 338 -130 454 -225 34 -28 67 -51 75 -51 7 0 42 9 76 20 71 22 184 26 247 9 22 -6 94 -38 161 -70 66 -32 130 -59 141 -59 12 0 40 9 64 20 73 33 145 27 251 -20 116 -51 141 -70 167 -124 29 -64 46 -70 188 -67 89 1 131 -2 158 -13 49 -21 140 -109 186 -181 21 -33 54 -75 74 -94 34 -33 40 -35 129 -41 116 -9 174 -38 251 -122 43 -48 61 -80 99 -178 25 -65 46 -129 46 -140 0 -34 -69 -335 -101 -440 -15 -52 -37 -134 -49 -182 -11 -48 -35 -136 -54 -195 -19 -59 -39 -124 -44 -143 -6 -19 -22 -66 -37 -105 -15 -38 -51 -137 -80 -220 -29 -82 -74 -208 -100 -280 -26 -71 -62 -177 -82 -235 -19 -58 -53 -150 -75 -205 -47 -118 -106 -276 -120 -324 -17 -57 0 -60 113 -21 105 36 194 96 255 170 15 19 46 56 69 81 156 176 303 360 430 539 109 154 176 260 419 670 133 224 242 435 337 650 43 97 121 327 133 390 4 19 20 91 36 160 16 69 32 152 35 185 3 33 11 78 16 100 21 82 30 132 33 190 3 33 12 130 20 215 9 85 21 202 27 260 21 205 6 1061 -21 1235 -6 39 -8 79 -6 91 3 11 -1 74 -9 140 -17 143 -60 481 -80 619 -7 55 -16 125 -20 155 -3 30 -17 109 -31 175 -122 571 -212 878 -419 1420 -157 413 -288 732 -366 890 -105 215 -300 531 -467 757 -23 31 -42 66 -42 76 0 10 -16 77 -35 148 -72 262 -198 444 -435 628 -177 138 -203 152 -234 121 -25 -25 -19 -65 20 -151 70 -149 128 -453 122 -629 l-4 -110 -58 -96 c-32 -54 -76 -117 -97 -140 l-39 -44 0 80 c-1 284 -108 624 -259 825 -91 121 -281 291 -499 447 -116 83 -172 113 -232 122 -94 15 -127 -23 -191 -219 -82 -249 -398 -978 -419 -965 -17 10 -56 -46 -105 -150 -53 -113 -109 -198 -214 -328 -32 -40 -76 -100 -98 -135 l-40 -63 -6 203 c-14 455 -89 719 -372 1303 -171 353 -261 580 -307 775 -39 165 -35 558 8 783 14 71 14 82 0 95 -13 14 -18 12 -43 -15z m-1411 -448 c3 -60 13 -141 22 -178 23 -98 22 -127 -6 -127 -38 0 -88 -38 -105 -78 l-15 -37 -28 33 c-15 18 -46 67 -69 109 -37 69 -41 81 -35 124 6 44 4 51 -24 79 -41 40 -94 42 -134 3 -40 -39 -39 -86 5 -127 32 -30 34 -35 40 -128 4 -53 14 -140 23 -193 9 -53 14 -99 10 -102 -6 -7 -83 57 -150 125 -37 39 -49 59 -52 89 -5 44 -42 83 -80 83 -15 0 -38 -13 -56 -30 -27 -28 -30 -36 -25 -75 5 -51 17 -68 68 -100 43 -28 97 -125 129 -234 31 -107 17 -109 -76 -11 -71 74 -224 199 -281 229 -32 16 -29 36 17 115 128 218 349 421 536 492 65 24 217 54 259 51 18 -2 21 -12 27 -112z m1047 -481 c19 -16 31 -35 31 -50 0 -29 3 -29 -51 -4 -64 29 -176 27 -252 -4 -91 -38 -204 -106 -279 -169 -42 -36 -75 -56 -84 -53 -23 9 -12 19 109 110 207 154 294 194 424 195 63 1 75 -2 102 -25z m-758 -114 c22 -12 26 -62 6 -78 -6 -6 -59 -22 -117 -37 -185 -47 -310 -111 -474 -242 -72 -59 -109 -69 -133 -37 -23 31 -14 54 45 116 95 100 205 166 367 220 77 26 172 52 210 57 39 4 71 9 73 10 2 0 12 -4 23 -9z m109 -321 c91 -48 133 -90 179 -178 22 -43 47 -81 55 -84 22 -9 55 4 61 23 3 10 17 25 30 34 l25 16 0 -54 c0 -80 27 -92 122 -52 17 8 15 -7 -7 -80 -4 -14 0 -27 11 -39 24 -24 83 -15 144 23 l48 30 8 -86 c7 -92 -5 -218 -27 -266 l-13 -27 -18 48 c-40 109 -130 173 -253 181 -79 5 -147 -10 -175 -38 -19 -19 -20 -19 -77 7 -47 21 -78 27 -164 31 -189 8 -300 -26 -380 -116 -138 -158 -129 -383 22 -504 33 -26 43 -29 127 -31 72 -1 91 -5 87 -15 -3 -8 -5 -18 -5 -23 0 -6 -30 -24 -66 -41 -59 -27 -73 -30 -129 -25 -69 7 -139 37 -250 109 -87 56 -104 74 -77 83 11 3 24 5 28 4 28 -5 56 3 74 21 27 27 25 39 -7 51 -31 12 -101 60 -191 133 -44 35 -88 85 -138 158 -41 59 -74 109 -74 111 0 2 28 7 63 11 93 9 174 37 294 102 122 65 202 134 234 203 26 53 193 252 247 294 32 25 43 28 85 23 26 -3 74 -19 107 -37z m2875 -82 c112 -76 350 -274 437 -365 149 -155 228 -300 288 -526 49 -189 69 -401 50 -536 -5 -41 -12 -104 -14 -140 -25 -405 -364 -1108 -730 -1515 l-69 -77 -56 114 c-45 91 -61 115 -84 122 -44 16 -55 -4 -33 -62 113 -290 164 -507 196 -833 17 -170 -12 -408 -64 -530 -8 -19 -38 -65 -65 -104 -46 -62 -49 -71 -36 -85 17 -17 16 -18 127 129 64 84 96 164 124 316 23 121 23 375 0 509 -9 54 -15 101 -13 103 2 2 14 -32 27 -74 12 -43 51 -154 85 -248 67 -181 122 -367 179 -610 55 -234 68 -345 67 -555 -1 -175 -6 -292 -31 -745 -31 -567 -72 -937 -110 -978 -4 -5 -39 5 -78 22 -85 37 -180 61 -248 61 l-51 0 13 52 c27 103 12 396 -31 624 -56 294 -116 485 -191 611 l-35 57 41 105 c54 136 93 294 115 459 17 123 17 134 2 149 -9 9 -18 15 -20 12 -2 -2 -47 -132 -101 -289 -134 -390 -216 -557 -384 -784 -188 -252 -473 -487 -794 -655 -350 -184 -741 -286 -1143 -298 -141 -5 -196 -2 -320 16 -194 28 -256 44 -389 98 -308 125 -533 275 -840 562 -104 96 -146 121 -206 121 -18 0 -22 -4 -18 -25 l5 -25 -46 27 c-199 116 -494 330 -756 548 -114 95 -348 304 -353 316 -2 4 7 10 20 14 13 4 90 38 172 77 82 38 152 65 156 61 3 -4 11 -29 18 -55 39 -157 203 -478 303 -594 90 -103 208 -204 241 -204 14 0 46 -8 70 -19 33 -14 48 -16 66 -8 32 14 24 26 -44 72 -82 55 -107 75 -192 157 -65 63 -81 87 -143 211 -124 246 -209 456 -209 514 0 6 21 27 47 44 138 95 293 258 413 435 138 203 112 206 -88 11 -240 -234 -373 -330 -607 -443 -529 -254 -938 -318 -1196 -189 -172 87 -277 184 -335 311 -24 51 -74 252 -74 297 0 13 7 47 16 76 24 83 75 129 212 197 64 31 126 56 136 56 10 -1 37 12 60 27 23 15 100 63 171 105 163 98 205 127 440 302 192 143 409 321 653 535 l134 116 119 33 c120 32 120 32 142 13 100 -89 290 -192 401 -218 148 -34 327 41 410 174 74 116 106 375 60 485 -6 16 -4 18 9 13 9 -3 40 -9 69 -13 43 -6 62 -15 101 -50 196 -175 544 -323 760 -324 84 0 240 31 326 64 189 75 436 267 521 405 33 52 34 53 43 30 56 -140 110 -207 204 -255 53 -27 67 -29 163 -29 99 0 110 2 172 33 52 25 87 55 162 133 53 56 118 134 144 173 l47 73 125 -59 c123 -57 159 -65 168 -40 7 21 -112 128 -175 157 -32 15 -60 29 -62 31 -2 2 14 25 36 51 22 26 80 102 128 168 49 66 116 154 150 195 134 164 251 342 309 470 13 30 69 154 124 275 130 286 251 581 297 725 21 63 44 125 51 137 17 27 28 24 109 -30z m-3542 -206 c-34 -32 -91 -72 -125 -89 -63 -30 -165 -58 -187 -51 -10 4 354 199 369 198 3 0 -23 -26 -57 -58z m-509 -331 c-13 -11 -178 -48 -249 -55 l-60 -6 145 75 145 74 14 -40 c7 -22 9 -43 5 -48z m1280 -21 c52 -19 57 -19 86 -4 45 23 194 25 235 3 70 -38 97 -88 104 -196 6 -77 5 -83 -14 -86 -11 -2 -56 -9 -100 -15 -110 -14 -177 -36 -227 -74 -59 -45 -73 -88 -52 -159 9 -29 25 -63 36 -75 27 -29 108 -63 169 -70 27 -3 52 -9 54 -14 3 -4 -15 -22 -40 -39 -58 -40 -62 -78 -11 -109 52 -32 172 -178 215 -261 69 -133 86 -242 56 -369 -30 -126 -98 -209 -279 -343 -130 -97 -245 -146 -393 -168 -200 -31 -433 37 -718 209 -97 58 -136 76 -205 92 -176 41 -332 107 -406 171 -34 29 -114 141 -114 158 0 3 45 15 101 25 92 16 149 41 149 64 0 5 -25 39 -57 77 -77 95 -107 162 -106 242 0 34 3 65 6 68 3 4 33 -23 66 -58 79 -84 157 -125 293 -153 l28 -5 -28 -51 -27 -50 25 -21 25 -20 30 38 c17 21 86 98 154 171 169 182 311 273 424 273 29 0 67 4 86 10 28 8 40 5 72 -13 48 -27 75 -16 73 31 -1 23 10 42 53 88 85 89 125 188 91 222 -8 8 -46 10 -133 5 l-121 -6 -28 29 c-57 60 -75 125 -56 203 16 67 60 132 109 159 78 44 284 56 375 21z m735 -689 c2 -180 -18 -331 -49 -383 -15 -25 -28 -36 -37 -33 -8 3 -18 6 -22 6 -5 0 -29 35 -54 78 -24 42 -77 114 -117 160 l-72 82 35 39 c19 21 38 45 43 53 5 8 37 30 72 48 35 19 79 52 98 74 34 39 73 127 75 169 4 70 27 -171 28 -293z m-169 280 c0 -5 -19 -29 -42 -53 -51 -52 -150 -90 -238 -91 -76 0 -105 9 -118 39 -10 22 -9 27 11 39 34 23 202 56 375 75 6 0 12 -3 12 -9z m3918 -382 c219 -326 384 -629 505 -933 59 -147 288 -759 339 -905 37 -107 165 -580 212 -783 45 -194 80 -401 101 -592 9 -82 22 -193 30 -246 66 -441 96 -1325 60 -1784 -37 -476 -118 -936 -225 -1268 -59 -185 -165 -410 -305 -652 -392 -673 -544 -904 -863 -1310 -68 -87 -77 -96 -67 -70 4 11 33 92 65 180 83 228 274 743 294 789 85 202 304 1111 341 1416 3 30 15 116 25 190 44 317 55 537 55 1105 0 297 -6 673 -13 835 -7 162 -17 419 -22 570 -36 971 -73 1424 -146 1805 -30 155 -175 737 -237 955 -48 164 -116 361 -217 625 -53 139 -59 163 -49 182 7 13 16 23 20 23 4 0 48 -60 97 -132z m-443 45 c38 -20 67 -27 120 -29 l70 -3 47 -128 c96 -256 169 -465 197 -566 65 -227 212 -811 240 -952 39 -192 87 -580 101 -805 6 -96 15 -242 20 -325 5 -82 14 -298 20 -480 6 -181 15 -463 20 -625 28 -803 23 -1398 -15 -1811 -16 -171 -53 -476 -60 -498 -4 -9 -15 0 -33 25 -84 115 -226 200 -366 217 -74 9 -86 13 -81 27 12 37 36 177 50 293 12 98 15 263 16 837 0 395 -5 807 -11 920 -51 958 -57 1026 -161 1610 -106 594 -160 818 -266 1095 -141 366 -268 615 -314 615 -11 0 -19 -6 -19 -14 0 -8 25 -72 56 -143 148 -337 273 -723 309 -948 9 -55 40 -226 70 -380 50 -259 130 -814 154 -1065 9 -98 15 -202 42 -750 17 -341 23 -1156 10 -1415 -13 -268 -32 -515 -38 -515 -3 0 -28 20 -55 45 -28 25 -84 62 -126 82 -73 36 -80 38 -179 38 -57 0 -103 4 -103 8 0 5 4 16 10 26 29 55 80 339 116 646 24 213 38 744 25 969 -18 300 -49 601 -81 792 -16 94 -47 283 -69 420 -22 137 -56 308 -76 379 -74 267 -172 544 -214 605 -10 14 -39 66 -65 116 -51 100 -110 174 -127 157 -7 -7 3 -42 30 -110 191 -480 291 -882 331 -1328 5 -66 21 -223 35 -350 36 -332 43 -454 56 -890 9 -304 9 -445 0 -640 -12 -235 -52 -649 -66 -687 -6 -15 -10 -15 -43 7 -21 13 -79 40 -131 60 -107 42 -200 53 -280 36 -30 -6 -55 -10 -57 -8 -2 1 8 33 22 70 36 101 74 322 84 500 6 87 15 211 20 275 6 64 15 171 20 237 5 66 14 176 21 245 29 331 -27 825 -135 1192 -107 360 -217 650 -307 806 -26 45 -34 53 -53 48 -20 -5 -24 2 -50 88 -16 52 -25 99 -22 104 3 6 30 24 59 40 77 44 229 182 300 272 67 85 147 214 252 408 152 280 236 513 285 789 14 83 22 107 41 123 13 10 27 19 30 20 10 0 173 190 204 238 27 40 29 42 49 27 12 -8 44 -27 71 -42z m-8618 -410 c40 -40 66 -58 131 -90 2 0 -17 -52 -42 -115 -71 -179 -141 -425 -215 -758 -67 -303 -84 -425 -141 -1015 -22 -231 -52 -523 -65 -650 -14 -126 -29 -275 -35 -330 -39 -373 -77 -1493 -66 -1915 9 -344 13 -379 121 -1285 78 -649 225 -1295 381 -1673 69 -166 147 -310 292 -529 23 -36 2 -27 -70 30 -239 187 -439 388 -646 650 -67 85 -246 343 -310 448 -220 361 -485 1009 -657 1602 -116 404 -162 818 -152 1357 16 815 120 1386 422 2310 169 515 497 1231 751 1636 61 98 246 372 251 374 1 0 24 -21 50 -47z m217 -507 c38 -218 109 -487 195 -736 75 -220 194 -546 251 -687 l57 -141 -91 -42 c-162 -75 -230 -123 -278 -196 l-43 -65 -3 48 c-1 26 -12 174 -24 328 -19 232 -22 359 -23 736 0 495 0 493 -54 487 -29 -3 -26 14 -52 -283 -19 -219 -17 -716 4 -961 9 -105 21 -289 27 -410 11 -256 13 -284 45 -594 45 -431 77 -840 95 -1180 21 -424 46 -652 89 -821 l26 -107 -55 -5 c-75 -7 -147 -36 -265 -106 -127 -75 -219 -151 -278 -231 -28 -37 -49 -57 -52 -48 -11 32 -36 342 -45 555 -16 384 13 1472 51 1908 5 66 19 200 29 298 11 98 42 420 70 715 66 711 84 834 186 1287 27 121 105 407 109 403 2 -2 15 -70 29 -152z m231 -2514 c92 -122 292 -247 465 -291 l75 -19 17 -263 c31 -483 56 -681 117 -913 36 -137 79 -256 130 -361 22 -44 38 -81 36 -83 -2 -2 -18 4 -36 14 -221 114 -524 88 -660 -56 l-45 -48 -22 158 c-29 200 -47 397 -67 720 -20 316 -57 754 -90 1048 -32 289 -32 292 4 217 15 -33 50 -88 76 -123z m1186 -288 c99 -104 481 -430 641 -547 351 -257 831 -537 978 -571 14 -4 40 -19 58 -35 l33 -28 -78 -56 c-43 -30 -97 -69 -121 -87 l-42 -32 -44 93 c-24 52 -51 116 -61 142 -10 27 -29 56 -42 64 -21 14 -25 14 -43 -2 -26 -23 -25 -51 1 -117 12 -29 27 -69 34 -90 l13 -36 -31 9 c-57 16 -162 11 -218 -11 -75 -30 -155 -86 -193 -136 l-33 -43 -66 137 c-36 75 -86 194 -111 264 -25 70 -69 185 -97 255 -28 71 -76 195 -105 278 -57 157 -75 188 -107 183 -41 -6 -44 -31 -13 -150 32 -128 210 -651 256 -753 16 -37 30 -68 30 -69 0 -1 -42 0 -94 2 -108 5 -158 -8 -231 -58 -26 -18 -48 -30 -50 -28 -7 7 -64 160 -98 263 -48 145 -142 485 -228 819 -37 148 -77 287 -88 309 -11 23 -19 42 -18 43 4 4 92 22 113 23 11 1 35 -15 55 -35z m-231 -24 c0 -11 11 -84 25 -163 84 -471 224 -1005 321 -1224 4 -8 -13 -12 -58 -12 -86 0 -198 -41 -305 -111 l-32 -21 -32 103 c-103 336 -146 563 -194 1048 -19 190 -37 351 -40 358 -3 9 16 12 73 13 42 1 106 7 142 14 95 18 100 18 100 -5z m5613 -367 c58 -218 92 -437 110 -713 19 -292 10 -495 -24 -516 -5 -3 -33 18 -62 48 -61 61 -179 133 -288 177 -73 29 -214 61 -270 61 -25 0 -33 8 -60 63 -18 34 -50 88 -71 121 l-40 58 38 31 c74 59 266 252 346 347 85 102 209 282 252 368 14 28 30 52 35 52 4 0 20 -44 34 -97z m-462 -2689 c119 -35 233 -127 282 -228 15 -30 27 -57 27 -59 0 -2 -36 13 -80 34 -45 22 -89 39 -99 39 -10 0 -46 -30 -80 -66 -60 -64 -64 -66 -120 -71 -61 -6 -100 9 -235 91 -44 26 -63 33 -76 26 -10 -5 -39 -43 -65 -85 -40 -65 -83 -105 -111 -105 -4 0 -4 35 -2 78 4 58 12 91 33 135 48 97 166 191 272 216 63 15 195 12 254 -5z m-26 -511 c30 -219 72 -336 133 -378 117 -79 276 51 315 257 10 56 12 60 18 33 10 -48 10 -251 -1 -355 -12 -112 -37 -206 -93 -350 -38 -99 -45 -110 -121 -186 -85 -84 -185 -144 -330 -199 -138 -52 -341 -40 -455 27 -154 91 -496 503 -552 665 -16 48 -17 59 -5 86 7 18 25 42 38 55 l25 23 21 -56 c51 -132 124 -191 227 -183 141 12 213 147 186 349 -17 126 -16 136 19 154 29 15 30 15 36 -12 43 -199 122 -314 237 -348 166 -49 269 128 234 403 l-8 62 35 0 c34 0 35 -1 41 -47z m-980 -944 c79 -102 256 -278 327 -327 100 -69 162 -91 300 -111 79 -11 226 1 301 25 31 9 59 15 63 12 9 -10 124 -336 134 -382 5 -22 12 -52 15 -66 6 -24 5 -25 -55 -27 -34 -2 -73 -8 -87 -15 -62 -31 -84 -158 -42 -240 17 -33 18 -42 7 -49 -19 -13 -28 -11 -28 6 0 8 -8 22 -19 32 -10 10 -23 33 -30 52 -16 49 -55 96 -94 115 -77 36 -148 11 -204 -73 -31 -47 -37 -65 -37 -111 -1 -30 2 -74 7 -97 l7 -43 -38 0 c-37 0 -39 1 -50 48 -30 116 -95 202 -164 217 -76 17 -163 -30 -198 -107 l-17 -38 -31 44 c-18 24 -32 53 -32 65 0 32 -105 375 -159 517 -27 71 -63 174 -80 229 -18 55 -41 124 -53 152 l-22 53 100 104 c54 57 101 104 104 104 3 0 37 -40 75 -89z"/>
<path d="M10460 14580 c-132 -14 -372 -61 -464 -91 -106 -35 -239 -100 -327 -159 -35 -24 -116 -96 -179 -159 -228 -228 -343 -422 -385 -644 -26 -137 -12 -221 60 -364 31 -62 70 -130 88 -150 102 -117 332 -177 492 -129 72 22 204 93 278 151 135 107 388 509 475 755 36 103 87 322 103 445 11 85 7 282 -6 317 -5 13 -51 42 -58 37 -1 -1 -36 -5 -77 -9z m27 -244 c-5 -146 -9 -175 -46 -312 -35 -131 -87 -284 -96 -284 -2 0 -36 62 -75 137 -87 167 -135 241 -228 357 -40 49 -72 92 -72 96 0 13 101 50 248 90 78 22 168 50 200 63 31 13 61 21 66 19 5 -3 6 -76 3 -166z m-533 -151 c42 -52 90 -118 107 -147 17 -29 41 -67 54 -83 28 -37 138 -256 154 -307 12 -35 10 -42 -26 -110 l-38 -73 -8 45 c-16 87 -27 116 -85 218 l-59 103 19 37 c42 80 -1 162 -85 162 -23 0 -47 4 -52 8 -23 17 -127 165 -131 187 -3 19 2 28 23 39 16 8 33 15 39 16 7 0 46 -43 88 -95z m-236 -362 c27 -20 72 -88 72 -109 0 -10 -80 -40 -83 -32 -37 76 -68 96 -122 78 -23 -7 -41 -23 -51 -42 -14 -28 -14 -34 0 -73 9 -23 27 -52 40 -64 24 -23 24 -23 81 -5 49 16 58 16 66 4 19 -32 10 -47 -37 -60 -44 -12 -46 -15 -40 -43 3 -16 6 -41 6 -56 l0 -27 70 7 c59 5 76 11 99 33 28 27 30 27 61 11 l31 -16 -20 -32 c-31 -52 -90 -78 -186 -86 -74 -6 -88 -10 -113 -35 -29 -27 -31 -27 -61 -12 -30 16 -31 18 -17 45 8 15 22 34 31 41 27 22 35 56 24 90 -12 32 -23 36 -64 20 -23 -9 -27 -7 -35 16 -11 29 -6 44 16 44 19 0 18 14 -3 31 -24 20 -53 89 -53 127 0 68 50 133 125 160 45 17 131 9 163 -15z"/>
<path d="M6610 13919 c-144 -17 -313 -49 -329 -62 -42 -32 -41 -46 15 -198 105 -287 201 -447 368 -615 171 -171 349 -279 606 -366 l125 -42 160 0 c232 -1 318 22 427 114 81 68 118 114 145 182 23 56 25 72 21 167 -6 124 -36 215 -108 321 -99 147 -228 245 -442 335 -134 57 -200 74 -485 124 -247 44 -386 55 -503 40z m258 -128 c23 -5 45 -11 48 -13 2 -3 -11 -38 -29 -79 -76 -167 -106 -287 -114 -464 l-6 -119 -58 63 c-32 35 -90 110 -129 166 -74 109 -236 433 -223 446 18 18 420 18 511 0z m249 -50 l23 -6 -30 -44 c-16 -25 -37 -71 -46 -102 -15 -49 -22 -59 -45 -64 -35 -8 -63 -39 -89 -98 -26 -59 -19 -106 22 -153 28 -32 30 -40 34 -139 3 -58 8 -125 13 -150 5 -25 6 -45 2 -45 -3 1 -33 20 -66 43 l-60 43 0 159 c1 211 24 313 115 508 l32 68 37 -7 c20 -4 46 -10 58 -13z m556 -235 c54 -27 80 -68 85 -139 l5 -60 -33 6 c-18 4 -39 7 -46 7 -9 0 -14 12 -14 34 0 51 -33 86 -81 86 -55 0 -76 -14 -89 -58 -13 -44 6 -126 30 -129 8 -1 36 -5 63 -8 45 -6 47 -8 47 -37 l0 -31 -55 7 c-52 6 -55 5 -55 -16 0 -13 -7 -36 -15 -52 -9 -16 -14 -30 -13 -30 90 -44 136 -53 176 -32 30 16 31 15 51 -13 19 -27 20 -29 3 -44 -48 -43 -115 -47 -208 -12 -76 29 -111 31 -140 10 -19 -13 -23 -12 -43 16 -12 16 -20 33 -17 38 3 5 25 18 49 29 54 25 69 43 70 84 2 31 0 33 -35 36 -36 3 -38 5 -38 39 0 33 2 35 25 29 24 -6 25 -5 18 21 -14 49 -8 128 13 164 28 49 95 81 159 76 28 -2 67 -12 88 -21z m-533 -115 c38 -28 33 -63 -10 -78 -64 -22 -140 12 -140 63 0 44 96 54 150 15z"/>
<path d="M9297 12292 c-20 -22 -77 -146 -77 -167 0 -31 36 -13 97 49 63 65 77 98 51 124 -18 18 -53 15 -71 -6z"/>
<path d="M8696 12104 c-32 -32 -10 -71 49 -84 90 -21 244 8 232 43 -5 15 -171 56 -224 57 -25 0 -48 -6 -57 -16z"/>
<path d="M8475 17675 c-29 -28 -30 -43 -11 -90 16 -38 52 -53 84 -36 56 30 27 151 -36 151 -7 0 -24 -11 -37 -25z"/>
<path d="M8072 17679 c-30 -11 -45 -54 -36 -104 8 -53 29 -75 70 -75 41 0 57 25 56 88 -2 72 -39 110 -90 91z"/>
<path d="M8104 16926 c-3 -8 15 -52 39 -98 66 -121 87 -191 87 -291 0 -167 -79 -274 -225 -307 -70 -16 -252 -13 -329 4 -66 16 -231 85 -222 94 3 2 37 10 77 18 39 7 78 19 85 25 26 21 17 65 -21 98 -37 32 -76 46 -163 57 -52 7 -52 7 -30 23 13 8 55 31 93 51 66 33 70 37 70 69 0 28 -6 36 -40 55 -22 11 -42 22 -44 23 -2 2 13 18 34 36 27 24 37 38 32 51 -5 14 -14 16 -44 10 -50 -9 -181 -69 -210 -96 -41 -39 -21 -98 34 -98 24 0 23 -2 -20 -44 -117 -113 -103 -180 36 -185 40 -1 50 -16 17 -26 -49 -16 -29 -99 38 -155 58 -49 209 -119 292 -136 97 -20 287 -20 363 1 199 52 287 180 287 417 0 110 -17 176 -67 266 -62 113 -151 185 -169 138z"/>
</g>
</svg>